<?xml version="1.0" encoding="utf-8"?>
<!-- Generator: Adobe Illustrator 24.3.0, SVG Export Plug-In . SVG Version: 6.00 Build 0)  -->
<svg version="1.1" id="Layer_1" xmlns="http://www.w3.org/2000/svg" xmlns:xlink="http://www.w3.org/1999/xlink" x="0px" y="0px"
	 viewBox="0 0 1366 768" style="enable-background:new 0 0 1366 768;" xml:space="preserve">
<style type="text/css">
	.st0{fill:url(#SVGID_1_);}
	.st1{fill:url(#SVGID_2_);}
	.st2{fill:url(#SVGID_3_);}
	.st3{fill:url(#SVGID_4_);}
	.st4{fill:url(#SVGID_5_);}
	.st5{fill:url(#SVGID_6_);}
	.st6{fill:url(#SVGID_7_);}
	.st7{fill:url(#SVGID_8_);}
	.st8{fill:url(#SVGID_9_);}
	.st9{fill:url(#SVGID_10_);}
	.st10{fill:url(#SVGID_11_);}
	.st11{fill:url(#SVGID_12_);}
	.st12{fill:url(#SVGID_13_);}
	.st13{fill:url(#SVGID_14_);}
	.st14{fill:url(#SVGID_15_);}
	.st15{fill:url(#SVGID_16_);}
	.st16{fill:url(#SVGID_17_);}
	.st17{fill:url(#SVGID_18_);}
	.st18{fill:url(#SVGID_19_);}
	.st19{fill:url(#SVGID_20_);}
	.st20{fill:#FFFFFF;}
	.st21{font-family:'Microsoft-Yi-Baiti';}
	.st22{font-size:84.7213px;}
	.st23{letter-spacing:8;}
</style>
<g>
	<rect width="1366" height="768"/>
</g>
<g>
	<g>
		<g>
			<g>
				<linearGradient id="SVGID_1_" gradientUnits="userSpaceOnUse" x1="518.972" y1="334.8113" x2="802.476" y2="334.8113">
					<stop  offset="0" style="stop-color:#662D91"/>
					<stop  offset="0.491" style="stop-color:#9A2177"/>
					<stop  offset="1" style="stop-color:#D4145A"/>
				</linearGradient>
				<path class="st0" d="M681.27,440.91c-11.57,0-19.9-12.29-20.26-12.83c-0.15-0.21-10.54-15.15-26.19-37.94
					c-12.04,23.45-20.61,39.8-20.81,40.18l-0.12,0.2c-0.3,0.43-7.56,10.46-17.8,9.19c-9-1.11-17.02-10.57-23.85-28.1
					c-3.77-9.68-7-18.61-10.13-27.25c-11.74-32.46-20.23-55.92-39.78-67.94l-3.35-2.06l3.78-1.11c0.53-0.15,53.7-15.06,85.24,31.4
					c9.56,14.08,18.54,27.23,26.4,38.68c16.45-32.11,38.3-75.38,54.43-109.67c29.94-63.68,103.48-41.09,104.22-40.86l9.44,3.01
					l-9.9,0.4c-13.71,0.56-32.18,40.72-38.15,56.15c-0.25,0.69-26.52,73.91-46.76,121.77c-7.13,16.84-15.49,25.83-24.87,26.71
					C682.28,440.88,681.77,440.91,681.27,440.91z M636.64,386.6c16.23,23.65,27.1,39.27,27.26,39.5c0.1,0.15,8.3,12.23,18.59,11.25
					c7.99-0.76,15.38-9.03,21.97-24.59c20.21-47.77,46.44-120.89,46.71-121.63c2.04-5.28,18.51-46.84,35.13-56.45
					c-6.97-1.52-19.59-3.52-33.67-2.14c-28.25,2.76-48.65,17.09-60.64,42.6C675.55,310.08,653.2,354.31,636.64,386.6z
					 M527.61,315.74c18.15,13.15,26.49,36.21,37.79,67.42c3.12,8.62,6.34,17.54,10.1,27.17c6.23,16,13.5,24.96,21,25.9
					c7.72,0.97,13.8-6.76,14.48-7.66c0.84-1.6,9.59-18.32,21.6-41.71c-8.1-11.81-17.47-25.52-27.47-40.25
					C579.86,309.45,540.09,313.41,527.61,315.74z"/>
			</g>
		</g>
		<g>
			<g>
				<linearGradient id="SVGID_2_" gradientUnits="userSpaceOnUse" x1="524.5569" y1="334.0137" x2="808.0583" y2="334.0137">
					<stop  offset="0" style="stop-color:#662D91"/>
					<stop  offset="0.491" style="stop-color:#9A2177"/>
					<stop  offset="1" style="stop-color:#D4145A"/>
				</linearGradient>
				<path class="st1" d="M686.86,440.11c-11.57,0-19.9-12.29-20.26-12.83c-0.15-0.21-10.54-15.15-26.19-37.94
					c-12.04,23.45-20.61,39.79-20.81,40.18l-0.12,0.2c-0.3,0.43-7.56,10.46-17.8,9.19c-9-1.11-17.02-10.57-23.85-28.1
					c-3.77-9.67-7-18.61-10.13-27.25c-11.74-32.46-20.23-55.92-39.78-67.94l-3.35-2.06l3.78-1.11c0.53-0.16,53.69-15.06,85.24,31.4
					c9.56,14.08,18.55,27.23,26.4,38.68c16.45-32.11,38.3-75.38,54.43-109.67c29.94-63.67,103.48-41.09,104.22-40.86l9.44,3.01
					l-9.9,0.41c-13.72,0.56-32.19,40.72-38.15,56.15c-0.25,0.69-26.52,73.91-46.76,121.77c-7.13,16.84-15.49,25.83-24.87,26.71
					C687.87,440.08,687.36,440.11,686.86,440.11z M642.22,385.8c16.23,23.65,27.1,39.27,27.26,39.5c0.1,0.15,8.31,12.23,18.59,11.25
					c7.99-0.76,15.38-9.03,21.97-24.59c20.21-47.77,46.44-120.9,46.71-121.63c2.04-5.28,18.51-46.84,35.13-56.45
					c-6.97-1.52-19.6-3.51-33.67-2.14c-28.25,2.76-48.65,17.09-60.65,42.6C681.13,309.28,658.78,353.51,642.22,385.8z
					 M533.19,314.95c18.15,13.15,26.49,36.21,37.79,67.43c3.12,8.62,6.34,17.54,10.1,27.17c6.24,16.01,13.51,24.97,21.02,25.9
					c7.77,0.96,13.79-6.76,14.46-7.66c0.83-1.58,9.58-18.31,21.6-41.72c-8.1-11.81-17.47-25.52-27.48-40.25
					C585.45,308.65,545.68,312.61,533.19,314.95z"/>
			</g>
		</g>
		<g>
			<g>
				<linearGradient id="SVGID_3_" gradientUnits="userSpaceOnUse" x1="530.1393" y1="333.2155" x2="813.6432" y2="333.2155">
					<stop  offset="0" style="stop-color:#662D91"/>
					<stop  offset="0.491" style="stop-color:#9A2177"/>
					<stop  offset="1" style="stop-color:#D4145A"/>
				</linearGradient>
				<path class="st2" d="M692.44,439.31c-11.57,0-19.9-12.29-20.26-12.83c-0.15-0.21-10.54-15.15-26.19-37.94
					c-12.04,23.45-20.61,39.8-20.81,40.18l-0.12,0.2c-0.3,0.43-7.57,10.45-17.8,9.19c-9-1.11-17.02-10.57-23.85-28.1
					c-3.77-9.68-7-18.61-10.13-27.25c-11.74-32.46-20.23-55.92-39.78-67.94l-3.35-2.06l3.78-1.11c0.54-0.15,53.69-15.06,85.24,31.4
					c9.56,14.08,18.54,27.23,26.4,38.68c16.45-32.11,38.3-75.37,54.43-109.67c29.94-63.68,103.48-41.1,104.22-40.86l9.44,3.01
					l-9.9,0.4c-13.71,0.56-32.18,40.72-38.15,56.14c-0.25,0.69-26.52,73.91-46.76,121.77c-7.13,16.84-15.49,25.83-24.87,26.71
					C693.45,439.29,692.94,439.31,692.44,439.31z M647.8,385.01c16.23,23.64,27.1,39.27,27.26,39.5c0.1,0.15,8.32,12.21,18.59,11.25
					c7.99-0.76,15.38-9.03,21.97-24.59c20.21-47.77,46.44-120.9,46.71-121.63c2.04-5.28,18.51-46.84,35.13-56.45
					c-6.97-1.52-19.59-3.52-33.67-2.14c-28.25,2.76-48.65,17.09-60.64,42.6C686.71,308.49,664.36,352.71,647.8,385.01z
					 M538.77,314.15c18.15,13.15,26.49,36.21,37.79,67.42c3.12,8.62,6.34,17.54,10.1,27.17c6.24,16.01,13.51,24.97,21.02,25.9
					c7.76,0.96,13.79-6.76,14.46-7.66c0.83-1.58,9.58-18.31,21.6-41.72c-8.1-11.81-17.47-25.52-27.47-40.25
					C591.03,307.85,551.26,311.81,538.77,314.15z"/>
			</g>
		</g>
		<g>
			<g>
				<linearGradient id="SVGID_4_" gradientUnits="userSpaceOnUse" x1="535.7233" y1="332.4187" x2="819.2264" y2="332.4187">
					<stop  offset="0" style="stop-color:#662D91"/>
					<stop  offset="0.491" style="stop-color:#9A2177"/>
					<stop  offset="1" style="stop-color:#D4145A"/>
				</linearGradient>
				<path class="st3" d="M698.02,438.51c-11.57,0-19.9-12.29-20.26-12.83c-0.15-0.21-10.54-15.15-26.19-37.94
					c-12.04,23.45-20.61,39.79-20.81,40.18l-0.12,0.2c-0.3,0.43-7.56,10.46-17.8,9.19c-9-1.11-17.02-10.57-23.85-28.1
					c-3.77-9.67-7-18.61-10.13-27.25c-11.74-32.47-20.23-55.92-39.78-67.94l-3.35-2.06l3.78-1.11c0.54-0.15,53.69-15.06,85.24,31.4
					c9.56,14.08,18.55,27.23,26.4,38.68c16.45-32.11,38.3-75.38,54.43-109.67c29.94-63.67,103.48-41.09,104.22-40.86l9.44,3.01
					l-9.9,0.4c-13.71,0.56-32.18,40.72-38.15,56.15c-0.25,0.69-26.52,73.91-46.76,121.77c-7.13,16.84-15.49,25.83-24.87,26.71
					C699.03,438.49,698.53,438.51,698.02,438.51z M653.39,384.21c16.23,23.65,27.1,39.27,27.26,39.5c0.1,0.15,8.3,12.23,18.59,11.25
					c7.99-0.76,15.38-9.03,21.97-24.59c20.21-47.77,46.44-120.89,46.71-121.63c2.04-5.28,18.51-46.84,35.13-56.45
					c-6.97-1.52-19.59-3.51-33.67-2.14c-28.25,2.76-48.65,17.09-60.64,42.6C692.3,307.69,669.95,351.92,653.39,384.21z
					 M544.36,313.35c18.15,13.15,26.5,36.21,37.79,67.43c3.12,8.62,6.34,17.54,10.1,27.17c6.24,16.01,13.51,24.97,21.02,25.9
					c7.76,0.96,13.79-6.76,14.46-7.66c0.83-1.58,9.58-18.31,21.6-41.72c-8.1-11.81-17.47-25.52-27.48-40.25
					C596.62,307.06,556.84,311.02,544.36,313.35z"/>
			</g>
		</g>
		<g>
			<g>
				<linearGradient id="SVGID_5_" gradientUnits="userSpaceOnUse" x1="541.3065" y1="331.6203" x2="824.8096" y2="331.6203">
					<stop  offset="0" style="stop-color:#662D91"/>
					<stop  offset="0.491" style="stop-color:#9A2177"/>
					<stop  offset="1" style="stop-color:#D4145A"/>
				</linearGradient>
				<path class="st4" d="M703.61,437.71c-11.57,0-19.9-12.29-20.26-12.83c-0.15-0.21-10.54-15.15-26.19-37.94
					c-12.04,23.45-20.61,39.8-20.81,40.18l-0.12,0.2c-0.3,0.43-7.58,10.45-17.8,9.19c-9-1.11-17.02-10.57-23.85-28.1
					c-3.77-9.68-7-18.61-10.13-27.25c-11.74-32.46-20.23-55.92-39.78-67.94l-3.35-2.06l3.78-1.11c0.53-0.16,53.69-15.06,85.24,31.4
					c9.56,14.08,18.54,27.23,26.4,38.68c16.45-32.11,38.3-75.38,54.43-109.67c29.94-63.68,103.48-41.09,104.22-40.86l9.44,3.01
					l-9.9,0.41c-13.71,0.56-32.18,40.72-38.15,56.15c-0.25,0.69-26.52,73.91-46.76,121.77c-7.13,16.84-15.49,25.83-24.87,26.71
					C704.62,437.69,704.11,437.71,703.61,437.71z M658.97,383.41c16.23,23.65,27.1,39.27,27.26,39.5
					c0.1,0.15,8.31,12.21,18.59,11.25c7.99-0.76,15.38-9.03,21.97-24.59c20.21-47.77,46.44-120.9,46.71-121.63
					c2.04-5.28,18.51-46.84,35.13-56.45c-6.97-1.52-19.59-3.51-33.67-2.14c-28.25,2.76-48.65,17.09-60.64,42.6
					C697.88,306.89,675.53,351.12,658.97,383.41z M549.94,312.55c18.15,13.15,26.49,36.21,37.79,67.42
					c3.12,8.62,6.34,17.54,10.1,27.17c6.24,16.01,13.51,24.97,21.02,25.9c7.76,0.96,13.79-6.76,14.46-7.66
					c0.83-1.58,9.58-18.31,21.6-41.72c-8.1-11.81-17.47-25.52-27.47-40.25C602.2,306.26,562.43,310.22,549.94,312.55z"/>
			</g>
		</g>
		<g>
			<g>
				<linearGradient id="SVGID_6_" gradientUnits="userSpaceOnUse" x1="546.8913" y1="330.8237" x2="830.3936" y2="330.8237">
					<stop  offset="0" style="stop-color:#662D91"/>
					<stop  offset="0.491" style="stop-color:#9A2177"/>
					<stop  offset="1" style="stop-color:#D4145A"/>
				</linearGradient>
				<path class="st5" d="M709.19,436.92c-11.57,0-19.9-12.29-20.26-12.83c-0.15-0.21-10.54-15.15-26.19-37.94
					c-12.04,23.45-20.61,39.8-20.81,40.18l-0.12,0.2c-0.3,0.43-7.56,10.46-17.8,9.19c-9-1.11-17.02-10.57-23.85-28.1
					c-3.77-9.67-7-18.61-10.13-27.25c-11.74-32.47-20.23-55.92-39.78-67.94l-3.35-2.06l3.78-1.11c0.53-0.16,53.69-15.06,85.24,31.4
					c9.56,14.08,18.55,27.23,26.4,38.68c16.45-32.11,38.3-75.38,54.43-109.67c29.94-63.67,103.48-41.09,104.22-40.86l9.44,3.01
					l-9.9,0.4c-13.71,0.56-32.18,40.72-38.15,56.14c-0.25,0.69-26.52,73.91-46.76,121.77c-7.13,16.84-15.49,25.83-24.87,26.71
					C710.2,436.89,709.69,436.92,709.19,436.92z M664.55,382.61c16.23,23.64,27.1,39.27,27.26,39.5c0.1,0.15,8.31,12.22,18.59,11.25
					c7.99-0.76,15.38-9.03,21.97-24.59c20.21-47.77,46.44-120.9,46.71-121.63c2.04-5.28,18.51-46.84,35.13-56.45
					c-6.97-1.52-19.6-3.51-33.67-2.14c-28.25,2.76-48.65,17.09-60.65,42.6C703.46,306.09,681.11,350.32,664.55,382.61z
					 M555.52,311.76c18.15,13.15,26.49,36.21,37.79,67.43c3.12,8.62,6.34,17.54,10.1,27.17c6.23,16,13.5,24.96,21.01,25.9
					c7.71,0.95,13.8-6.76,14.48-7.66c0.84-1.6,9.59-18.32,21.6-41.71c-8.1-11.81-17.47-25.52-27.48-40.25
					C607.78,305.46,568.01,309.42,555.52,311.76z"/>
			</g>
		</g>
		<g>
			<g>
				<linearGradient id="SVGID_7_" gradientUnits="userSpaceOnUse" x1="552.4736" y1="330.0252" x2="835.9776" y2="330.0252">
					<stop  offset="0" style="stop-color:#662D91"/>
					<stop  offset="0.491" style="stop-color:#9A2177"/>
					<stop  offset="1" style="stop-color:#D4145A"/>
				</linearGradient>
				<path class="st6" d="M714.77,436.12c-11.57,0-19.9-12.29-20.26-12.83c-0.15-0.21-10.54-15.15-26.19-37.94
					c-12.04,23.45-20.61,39.8-20.81,40.18l-0.12,0.2c-0.3,0.43-7.56,10.45-17.8,9.19c-9-1.11-17.02-10.57-23.85-28.1
					c-3.77-9.68-7-18.61-10.13-27.25c-11.74-32.46-20.23-55.92-39.78-67.94l-3.35-2.06l3.78-1.11c0.53-0.16,53.7-15.06,85.24,31.4
					c9.56,14.08,18.54,27.23,26.4,38.68c16.45-32.11,38.3-75.38,54.43-109.67c29.94-63.68,103.48-41.09,104.22-40.86l9.44,3.01
					l-9.9,0.4c-13.71,0.56-32.18,40.72-38.15,56.15c-0.25,0.69-26.52,73.91-46.76,121.77c-7.13,16.84-15.49,25.83-24.87,26.71
					C715.79,436.1,715.28,436.12,714.77,436.12z M670.14,381.82c16.23,23.65,27.1,39.27,27.26,39.5c0.1,0.15,8.29,12.23,18.59,11.25
					c7.99-0.76,15.38-9.03,21.97-24.59c20.21-47.77,46.44-120.89,46.71-121.63c2.04-5.28,18.51-46.84,35.13-56.45
					c-6.97-1.52-19.59-3.52-33.67-2.14c-28.25,2.76-48.65,17.09-60.64,42.6C709.05,305.29,686.7,349.52,670.14,381.82z
					 M561.11,310.96c18.15,13.15,26.49,36.21,37.79,67.42c3.12,8.62,6.34,17.54,10.1,27.17c6.23,16,13.5,24.96,21,25.9
					c7.75,0.97,13.8-6.76,14.48-7.66c0.84-1.6,9.59-18.32,21.6-41.71c-8.1-11.81-17.47-25.52-27.47-40.25
					C613.37,304.66,573.59,308.62,561.11,310.96z"/>
			</g>
		</g>
		<g>
			<g>
				<linearGradient id="SVGID_8_" gradientUnits="userSpaceOnUse" x1="558.0585" y1="329.2277" x2="841.5599" y2="329.2277">
					<stop  offset="0" style="stop-color:#662D91"/>
					<stop  offset="0.491" style="stop-color:#9A2177"/>
					<stop  offset="1" style="stop-color:#D4145A"/>
				</linearGradient>
				<path class="st7" d="M720.36,435.32c-11.57,0-19.9-12.29-20.26-12.83c-0.15-0.21-10.54-15.15-26.19-37.94
					c-12.04,23.45-20.61,39.8-20.81,40.18l-0.12,0.2c-0.3,0.43-7.56,10.46-17.8,9.19c-9-1.11-17.02-10.57-23.85-28.1
					c-3.77-9.67-7-18.61-10.13-27.25c-11.74-32.46-20.23-55.92-39.78-67.94l-3.35-2.06l3.78-1.11c0.53-0.15,53.69-15.06,85.24,31.4
					c9.56,14.08,18.55,27.23,26.4,38.68c16.45-32.11,38.3-75.38,54.43-109.67c29.94-63.67,103.48-41.09,104.22-40.86l9.44,3.01
					l-9.9,0.41c-13.72,0.56-32.19,40.72-38.15,56.15c-0.25,0.69-26.52,73.91-46.76,121.77c-7.12,16.84-15.49,25.83-24.87,26.71
					C721.37,435.3,720.86,435.32,720.36,435.32z M675.72,381.02c16.23,23.64,27.1,39.27,27.26,39.5c0.1,0.15,8.3,12.21,18.59,11.25
					c7.99-0.76,15.38-9.03,21.97-24.59c20.21-47.77,46.44-120.9,46.71-121.63c2.04-5.28,18.51-46.84,35.13-56.45
					c-6.97-1.52-19.59-3.51-33.67-2.14c-28.25,2.76-48.65,17.09-60.64,42.6C714.63,304.5,692.28,348.72,675.72,381.02z
					 M566.69,310.16c18.15,13.15,26.49,36.21,37.79,67.43c3.12,8.62,6.34,17.54,10.1,27.17c6.23,16,13.5,24.96,21.01,25.9
					c7.72,0.95,13.8-6.76,14.48-7.66c0.84-1.6,9.59-18.32,21.6-41.71c-8.1-11.81-17.47-25.52-27.48-40.25
					C618.95,303.87,579.18,307.82,566.69,310.16z"/>
			</g>
		</g>
		<g>
			<g>
				<linearGradient id="SVGID_9_" gradientUnits="userSpaceOnUse" x1="563.6408" y1="328.4302" x2="847.1448" y2="328.4302">
					<stop  offset="0" style="stop-color:#662D91"/>
					<stop  offset="0.491" style="stop-color:#9A2177"/>
					<stop  offset="1" style="stop-color:#D4145A"/>
				</linearGradient>
				<path class="st8" d="M725.94,434.52c-11.57,0-19.9-12.29-20.26-12.83c-0.15-0.21-10.54-15.15-26.19-37.94
					c-12.04,23.45-20.61,39.8-20.81,40.18l-0.12,0.2c-0.3,0.43-7.58,10.45-17.8,9.19c-9-1.11-17.02-10.57-23.85-28.1
					c-3.77-9.68-7-18.61-10.13-27.25c-11.74-32.46-20.23-55.92-39.78-67.94l-3.35-2.06l3.78-1.11c0.54-0.15,53.7-15.06,85.24,31.4
					c9.56,14.08,18.54,27.23,26.4,38.68c16.45-32.11,38.3-75.38,54.43-109.67c29.94-63.68,103.48-41.09,104.22-40.86l9.44,3.01
					l-9.9,0.4c-13.71,0.56-32.18,40.72-38.15,56.15c-0.25,0.69-26.52,73.91-46.76,121.77c-7.13,16.84-15.49,25.83-24.87,26.71
					C726.95,434.5,726.44,434.52,725.94,434.52z M681.3,380.22c16.23,23.65,27.1,39.27,27.26,39.5c0.1,0.15,8.3,12.23,18.59,11.25
					c7.99-0.76,15.38-9.03,21.97-24.59c20.21-47.77,46.44-120.89,46.71-121.63c2.04-5.28,18.51-46.84,35.13-56.45
					c-6.97-1.52-19.59-3.51-33.67-2.14c-28.25,2.76-48.65,17.09-60.64,42.6C720.22,303.7,697.86,347.93,681.3,380.22z
					 M572.27,309.36c18.15,13.15,26.49,36.21,37.79,67.42c3.12,8.62,6.34,17.54,10.1,27.17c6.24,16.01,13.51,24.97,21.02,25.9
					c7.76,0.96,13.79-6.76,14.46-7.66c0.83-1.58,9.58-18.31,21.6-41.72c-8.1-11.81-17.47-25.52-27.47-40.25
					C624.53,303.07,584.76,307.03,572.27,309.36z"/>
			</g>
		</g>
		<g>
			<g>
				<linearGradient id="SVGID_10_" gradientUnits="userSpaceOnUse" x1="569.2249" y1="327.6326" x2="852.7279" y2="327.6326">
					<stop  offset="0" style="stop-color:#662D91"/>
					<stop  offset="0.491" style="stop-color:#9A2177"/>
					<stop  offset="1" style="stop-color:#D4145A"/>
				</linearGradient>
				<path class="st9" d="M731.52,433.73c-11.57,0-19.9-12.29-20.26-12.83c-0.15-0.21-10.54-15.15-26.19-37.94
					c-12.04,23.45-20.61,39.8-20.81,40.18l-0.12,0.2c-0.3,0.43-7.55,10.46-17.8,9.19c-9-1.11-17.02-10.57-23.85-28.1
					c-3.77-9.67-7-18.61-10.13-27.25c-11.74-32.46-20.23-55.92-39.78-67.94l-3.35-2.06l3.78-1.11c0.53-0.16,53.69-15.06,85.24,31.4
					c9.56,14.08,18.54,27.23,26.4,38.68c16.45-32.11,38.3-75.38,54.43-109.67c29.94-63.67,103.48-41.09,104.22-40.86l9.44,3.01
					l-9.9,0.4c-13.71,0.56-32.18,40.72-38.15,56.15c-0.25,0.69-26.52,73.91-46.76,121.77c-7.13,16.84-15.49,25.83-24.87,26.71
					C732.54,433.7,732.03,433.73,731.52,433.73z M686.89,379.42c16.23,23.65,27.1,39.27,27.26,39.5c0.1,0.15,8.33,12.24,18.59,11.25
					c7.99-0.76,15.38-9.03,21.97-24.59c20.21-47.77,46.44-120.9,46.71-121.63c2.04-5.28,18.51-46.84,35.13-56.45
					c-6.97-1.52-19.6-3.51-33.67-2.14c-28.25,2.76-48.65,17.09-60.65,42.6C725.8,302.9,703.45,347.13,686.89,379.42z M577.86,308.56
					c18.15,13.15,26.49,36.21,37.79,67.43c3.12,8.62,6.34,17.54,10.1,27.17c6.24,16.01,13.51,24.97,21.02,25.9
					c7.76,0.95,13.79-6.76,14.46-7.66c0.83-1.58,9.58-18.31,21.6-41.72c-8.11-11.81-17.47-25.52-27.48-40.25
					C630.12,302.27,590.34,306.23,577.86,308.56z"/>
			</g>
		</g>
	</g>
	<text transform="matrix(1 0 0 1 420.8318 532.3547)" class="st20 st21 st22 st23">VERSALFLOW</text>
</g>
</svg>
